# xmcd
#
# Track frame offsets:
#	150
#	28460
#	57775
#	86095
#	102897
#
# Disc length: 1709 seconds
# Revision: 0
# Processed by: cddbd v1.5.2PL0 Copyright (c) Steve Scherf et al.
# Submitted via: dBpowerAMP V12.0
#
DISCID=3c06ab05
DTITLE=Innocence - Let's Push It
DYEAR=1991
DGENRE=House
TTITLE0=Let’s Push It [Push It Mix]
TTITLE1=Let’s Push It [Class Mix]
TTITLE2=Let’s Push It [Kool Mix]
TTITLE3=Let’s Push It [Album Edit]
TTITLE4=Let’s Push It [Edited Album Version]
EXTD=
EXTT0=
EXTT1=
EXTT2=
EXTT3=
EXTT4=
PLAYORDER=
